<?xml version="1.0" encoding="UTF-8"?>
<svg width="361px" height="86px" viewBox="0 0 361 86" version="1.1" xmlns="http://www.w3.org/2000/svg" xmlns:xlink="http://www.w3.org/1999/xlink">
    <title>形状结合</title>
    <defs>
        <linearGradient x1="0%" y1="47.2159932%" x2="107.47275%" y2="51.8118172%" id="linearGradient-1">
            <stop stop-color="#FF9494" offset="0%"></stop>
            <stop stop-color="#E50000" offset="100%"></stop>
        </linearGradient>
    </defs>
    <g id="页面-1" stroke="none" stroke-width="1" fill="none" fill-rule="evenodd">
        <g id="画框" transform="translate(-117, -81)" fill="url(#linearGradient-1)" fill-rule="nonzero">
            <path d="M179.034,106.073 C179.034,109.622333 178.308,113.050667 176.856,116.358 C175.404,119.665333 173.185667,122.529 170.201,124.949 C173.266333,126.643 175.3435,129.0025 176.4325,132.0275 C177.5215,135.0525 178.066,138.138 178.066,141.284 L178.066,153.384 C178.066,154.916667 178.449167,156.691333 179.2155,158.708 C179.981833,160.724667 180.97,162.822 182.18,165 L166.813,165 C165.522333,162.983333 164.735833,160.9465 164.4535,158.8895 C164.171167,156.8325 164.03,155.118333 164.03,153.747 L164.03,141.163 C164.03,139.953 163.828333,138.743 163.425,137.533 C163.021667,136.323 162.356167,135.234 161.4285,134.266 C160.500833,133.298 159.290833,132.5115 157.7985,131.9065 C156.306167,131.3015 154.471,130.999 152.293,130.999 L131.239,130.999 L131.239,165 L117.082,165 L117.082,81.268 L152.293,81.268 C156.649,81.268 160.480667,81.994 163.788,83.446 C167.095333,84.898 169.878333,86.8138333 172.137,89.1935 C174.395667,91.5731667 176.109833,94.2351667 177.2795,97.1795 C178.449167,100.123833 179.034,103.088333 179.034,106.073 Z M131.239,119.02 L152.293,119.02 C153.987,119.02 155.600333,118.677167 157.133,117.9915 C158.665667,117.305833 159.996667,116.378167 161.126,115.2085 C162.255333,114.038833 163.162833,112.6675 163.8485,111.0945 C164.534167,109.5215 164.877,107.807333 164.877,105.952 C164.877,102.322 163.707333,99.3373333 161.368,96.998 C159.028667,94.6586667 156.003667,93.489 152.293,93.489 L131.239,93.489 L131.239,119.02 Z M200.935,138.622 C201.257667,140.638667 201.8425,142.594833 202.6895,144.4905 C203.5365,146.386167 204.565,148.080167 205.775,149.5725 C206.985,151.064833 208.3765,152.254667 209.9495,153.142 C211.5225,154.029333 213.196333,154.473 214.971,154.473 C221.505,154.473 226.062667,150.722 228.644,143.22 L241.591,143.22 C240.865,146.85 239.634833,150.076667 237.9005,152.9 C236.166167,155.723333 234.109167,158.123167 231.7295,160.0995 C229.349833,162.075833 226.728167,163.568167 223.8645,164.5765 C221.000833,165.584833 218.036333,166.089 214.971,166.089 C210.615,166.089 206.702667,165.221833 203.234,163.4875 C199.765333,161.753167 196.780667,159.434 194.28,156.53 C191.779333,153.626 189.8635,150.238 188.5325,146.366 C187.2015,142.494 186.536,138.38 186.536,134.024 C186.536,129.990667 187.2015,126.159 188.5325,122.529 C189.8635,118.899 191.759167,115.6925 194.2195,112.9095 C196.679833,110.1265 199.644333,107.908167 203.113,106.2545 C206.581667,104.600833 210.494,103.774 214.85,103.774 C219.044667,103.774 222.836,104.520167 226.224,106.0125 C229.612,107.504833 232.495833,109.561833 234.8755,112.1835 C237.255167,114.805167 239.090333,117.910833 240.381,121.5005 C241.671667,125.090167 242.317,128.982333 242.317,133.177 L242.317,138.622 L200.935,138.622 Z M227.918,127.853 C227.434,124.223 226.002167,121.278667 223.6225,119.02 C221.242833,116.761333 218.117,115.632 214.245,115.632 C212.551,115.632 210.957833,115.954667 209.4655,116.6 C207.973167,117.245333 206.662333,118.132667 205.533,119.262 C204.403667,120.391333 203.455833,121.682 202.6895,123.134 C201.923167,124.586 201.378667,126.159 201.056,127.853 L227.918,127.853 Z M290.596,134.145 C290.515333,131.563667 290.192667,129.143667 289.628,126.885 C289.063333,124.626333 288.256667,122.670167 287.208,121.0165 C286.159333,119.362833 284.868667,118.052 283.336,117.084 C281.803333,116.116 280.069,115.632 278.133,115.632 C276.197,115.632 274.462667,116.136167 272.93,117.1445 C271.397333,118.152833 270.106667,119.544333 269.058,121.319 C268.009333,123.093667 267.202667,125.170833 266.638,127.5505 C266.073333,129.930167 265.791,132.451 265.791,135.113 C265.791,137.775 266.073333,140.295833 266.638,142.6755 C267.202667,145.055167 268.009333,147.112167 269.058,148.8465 C270.106667,150.580833 271.397333,151.952167 272.93,152.9605 C274.462667,153.968833 276.197,154.473 278.133,154.473 C280.149667,154.473 281.924333,153.968833 283.457,152.9605 C284.989667,151.952167 286.280333,150.580833 287.329,148.8465 C288.377667,147.112167 289.184333,145.055167 289.749,142.6755 C290.313667,140.295833 290.596,137.775 290.596,135.113 L290.596,134.145 Z M304.39,165 L290.596,165 L290.596,161.491 C288.740667,163.185 286.744167,164.395 284.6065,165.121 C282.468833,165.847 280.230333,166.21 277.891,166.21 C273.615667,166.21 269.864667,165.403333 266.638,163.79 C263.411333,162.176667 260.709,159.958333 258.531,157.135 C256.353,154.311667 254.699333,151.004333 253.57,147.213 C252.440667,143.421667 251.876,139.388333 251.876,135.113 C251.876,130.757 252.4205,126.683333 253.5095,122.892 C254.5985,119.100667 256.232,115.793333 258.41,112.97 C260.588,110.146667 263.270167,107.908167 266.4565,106.2545 C269.642833,104.600833 273.373667,103.774 277.649,103.774 C279.665667,103.774 281.863833,104.258 284.2435,105.226 C286.623167,106.194 288.740667,107.363667 290.596,108.735 L290.596,82.599 L304.39,82.599 L304.39,165 Z M328.832,82.599 L328.832,96.635 L315.038,96.635 L315.038,82.599 L328.832,82.599 Z M328.832,104.863 L328.832,165 L315.038,165 L315.038,104.863 L328.832,104.863 Z M357.509,88.286 L357.509,104.863 L366.1,104.863 L366.1,116.358 L357.509,116.358 L357.509,150.238 C357.509,151.851333 357.831667,152.9605 358.477,153.5655 C359.122333,154.1705 359.888667,154.473 360.776,154.473 C361.26,154.473 362.006167,154.392333 363.0145,154.231 C364.022833,154.069667 365.495,153.787333 367.431,153.384 L367.431,164.516 C365.656333,165.080667 363.922,165.484 362.228,165.726 C360.534,165.968 358.961,166.089 357.509,166.089 C355.653667,166.089 353.879,165.867167 352.185,165.4235 C350.491,164.979833 349.018833,164.233667 347.7685,163.185 C346.518167,162.136333 345.509833,160.805333 344.7435,159.192 C343.977167,157.578667 343.594,155.562 343.594,153.142 L343.594,116.358 L334.882,116.358 L334.882,104.863 L343.594,104.863 L343.594,88.286 L357.509,88.286 Z M391.873,149.754 L391.873,165 L375.659,165 L375.659,149.754 L391.873,149.754 Z M412.806,82.599 L412.806,96.635 L399.012,96.635 L399.012,82.599 L412.806,82.599 Z M412.806,104.863 L412.806,165 L399.012,165 L399.012,104.863 L412.806,104.863 Z M420.913,134.992 C420.913,130.716667 421.518,126.683333 422.728,122.892 C423.938,119.100667 425.732833,115.793333 428.1125,112.97 C430.492167,110.146667 433.416333,107.908167 436.885,106.2545 C440.353667,104.600833 444.346667,103.774 448.864,103.774 C453.381333,103.774 457.3945,104.600833 460.9035,106.2545 C464.4125,107.908167 467.356833,110.146667 469.7365,112.97 C472.116167,115.793333 473.931167,119.100667 475.1815,122.892 C476.431833,126.683333 477.057,130.716667 477.057,134.992 C477.057,139.267333 476.431833,143.300667 475.1815,147.092 C473.931167,150.883333 472.116167,154.1705 469.7365,156.9535 C467.356833,159.7365 464.4125,161.934667 460.9035,163.548 C457.3945,165.161333 453.381333,165.968 448.864,165.968 C444.346667,165.968 440.353667,165.161333 436.885,163.548 C433.416333,161.934667 430.492167,159.7365 428.1125,156.9535 C425.732833,154.1705 423.938,150.883333 422.728,147.092 C421.518,143.300667 420.913,139.267333 420.913,134.992 Z M434.586,134.992 C434.586,137.654 434.908667,140.154667 435.554,142.494 C436.199333,144.833333 437.147167,146.870167 438.3975,148.6045 C439.647833,150.338833 441.160333,151.710167 442.935,152.7185 C444.709667,153.726833 446.686,154.231 448.864,154.231 C451.042,154.231 453.018333,153.726833 454.793,152.7185 C456.567667,151.710167 458.080167,150.338833 459.3305,148.6045 C460.580833,146.870167 461.548833,144.833333 462.2345,142.494 C462.920167,140.154667 463.263,137.654 463.263,134.992 C463.263,132.33 462.920167,129.829333 462.2345,127.49 C461.548833,125.150667 460.580833,123.093667 459.3305,121.319 C458.080167,119.544333 456.567667,118.152833 454.793,117.1445 C453.018333,116.136167 451.042,115.632 448.864,115.632 C446.686,115.632 444.709667,116.136167 442.935,117.1445 C441.160333,118.152833 439.647833,119.544333 438.3975,121.319 C437.147167,123.093667 436.199333,125.150667 435.554,127.49 C434.908667,129.829333 434.586,132.33 434.586,134.992 Z" id="形状结合"></path>
        </g>
    </g>
</svg>